Coordinates
version=1
nRows=36
nColumns=30
inDegrees=yes

Units are S.I. units (second, meters, Newtons, ...)
Angles are in degrees.

endheader
time	floatyaw	floatroll	floatpitch	floatx	floaty	floatz	pro_sup_l	deviation_l	flexion_l	cmc_flexion_l	cmc_abduction_l	mp_flexion_l	ip_flexion_l	2mcp_flexion_l	2mcp_abduction_l	2pm_flexion_l	2md_flexion_l	3mcp_flexion_l	3mcp_abduction_l	3pm_flexion_l	3md_flexion_l	4mcp_flexion_l	4mcp_abduction_l	4pm_flexion_l	4md_flexion_l	5mcp_flexion_l	5mcp_abduction_l	5pm_flexion_l	5md_flexion_l
0.005000	-0.883807	-4.225655	94.239928	0.164277	-0.270132	0.160878	107.398435	20.972915	23.400623	-7.347201	37.717585	-15.534152	-16.177627	60.056020	13.692631	27.875204	31.966206	52.240884	8.072845	35.253426	46.363315	33.618135	-6.368299	70.355422	64.212786	27.897851	-10.637107	81.971966	55.720842
0.015000	-0.883807	-4.225655	94.239928	0.163858	-0.269551	0.160144	106.642915	20.562052	22.977973	-6.551394	37.322811	-16.347512	-18.573874	60.278198	13.644642	28.265925	33.283591	52.094041	7.993878	35.936764	48.192128	33.317837	-6.433239	70.944604	65.091285	27.581390	-10.461992	82.051361	55.915837
0.025000	-0.883807	-4.225655	94.239928	0.163284	-0.268830	0.159359	105.885509	20.133429	22.419902	-5.584394	37.115933	-17.044758	-21.485660	60.448671	13.588996	28.723428	34.836857	51.879350	7.912018	36.734966	50.240444	32.945714	-6.512429	71.550841	66.037551	27.132194	-10.272355	82.178097	56.204225
0.035000	-0.883807	-4.225655	94.239928	0.162582	-0.268049	0.158530	105.184367	19.723343	21.752790	-4.575388	37.080497	-17.581236	-24.706993	60.584215	13.546495	29.186624	36.593116	51.645689	7.834296	37.566020	52.378543	32.574388	-6.602574	72.115455	67.007918	26.635984	-10.085385	82.345472	56.523183
0.045000	-0.883807	-4.225655	94.239928	0.161792	-0.267306	0.157661	104.583084	19.361340	21.041268	-3.653032	37.179731	-17.928918	-27.957311	60.684458	13.531897	29.596207	38.465508	51.420800	7.766288	38.347215	54.428430	32.251323	-6.694694	72.585247	67.942227	26.184163	-9.919996	82.518406	56.807749
0.055000	-0.883807	-4.225655	94.239928	0.160962	-0.266698	0.156760	104.101470	19.066972	20.366648	-2.912523	37.374729	-18.080778	-30.948196	60.737575	13.549248	29.907451	40.323897	51.212517	7.711448	39.012668	56.215795	31.992862	-6.777144	72.930930	68.780571	25.845491	-9.790844	82.656559	57.011641
0.065000	-0.883807	-4.225655	94.239928	0.160136	-0.266289	0.155852	103.736605	18.850816	19.797404	-2.396655	37.632696	-18.053801	-33.448499	60.732570	13.591246	30.098967	42.017890	51.019457	7.670897	39.523586	57.616508	31.791674	-6.839901	73.154907	69.476161	25.647098	-9.703351	82.734819	57.119824
0.075000	-0.883807	-4.225655	94.239928	0.159350	-0.266091	0.154989	103.473630	18.716818	19.366004	-2.095091	37.925062	-17.889257	-35.329079	60.671890	13.642954	30.176055	43.406648	50.843204	7.643572	39.870987	58.579700	31.631885	-6.878258	73.284964	70.000723	25.572119	-9.652182	82.751316	57.146913
0.085000	-0.883807	-4.225655	94.239928	0.158630	-0.266065	0.154240	103.298939	18.662902	19.063382	-1.958576	38.223071	-17.646750	-36.578926	60.575965	13.688321	30.168191	44.390820	50.693269	7.626746	40.073052	59.124444	31.502654	-6.894211	73.358899	70.345282	25.574004	-9.624188	82.723036	57.122791
0.095000	-0.883807	-4.225655	94.239928	0.158001	-0.266136	0.153679	103.205824	18.679086	18.852203	-1.920925	38.498276	-17.390466	-37.291743	60.476574	13.716459	30.119985	44.938972	50.582501	7.616873	40.168753	59.319939	31.403160	-6.894910	73.409751	70.520583	25.600088	-9.604485	82.676203	57.074062
0.105000	-0.883807	-4.225655	94.239928	0.157483	-0.266232	0.153349	103.188750	18.745583	18.689546	-1.920917	38.728463	-17.171984	-37.626921	60.403823	13.724630	30.076209	45.097338	50.518489	7.610576	40.206581	59.262670	31.337931	-6.889046	73.458475	70.557413	25.612643	-9.582460	82.637581	57.012482
0.115000	-0.883807	-4.225655	94.239928	0.157092	-0.266300	0.153238	103.232856	18.834523	18.545714	-1.917489	38.903485	-17.018048	-37.756128	60.374975	13.716968	30.065503	44.975318	50.498679	7.605407	40.228123	59.058413	31.307603	-6.883152	73.513705	70.503455	25.597626	-9.554652	82.627557	56.936982
0.125000	-0.883807	-4.225655	94.239928	0.156831	-0.266328	0.153287	103.309715	18.916603	18.410673	-1.894601	39.025703	-16.929232	-37.814547	60.390344	13.700654	30.090945	44.710931	50.512046	7.600158	40.252891	58.808758	31.302601	-6.879713	73.574150	70.414421	25.559298	-9.523580	82.653995	56.846294
0.135000	-0.883807	-4.225655	94.239928	0.156683	-0.266330	0.153404	103.384439	18.969797	18.288685	-1.856381	39.104872	-16.888611	-37.875511	60.436147	13.682259	30.133504	44.431311	50.543946	7.594746	40.274981	58.598378	31.304181	-6.877711	73.631258	70.341500	25.507501	-9.494230	82.708624	56.751130
0.145000	-0.883807	-4.225655	94.239928	0.156619	-0.266332	0.153509	103.429391	18.985250	18.188135	-1.816812	39.151577	-16.874330	-37.955227	60.491113	13.665867	30.166504	44.224492	50.579699	7.589781	40.275580	58.482387	31.291710	-6.874769	73.673021	70.319845	25.447173	-9.470757	82.769461	56.675415
0.155000	-0.883807	-4.225655	94.239928	0.156600	-0.266354	0.153559	103.435024	18.967296	18.113750	-1.789456	39.173502	-16.869611	-38.037954	60.533970	13.652915	30.171811	44.129983	50.606105	7.585982	40.242569	58.478034	31.251508	-6.869332	73.689249	70.362225	25.375669	-9.454896	82.809722	56.645473
0.165000	-0.883807	-4.225655	94.239928	0.156595	-0.266399	0.153557	103.411173	18.928347	18.064260	-1.781086	39.175934	-16.866786	-38.103631	60.550098	13.642966	30.148135	44.145171	50.613129	7.583627	40.182597	58.566038	31.182621	-6.861705	73.676120	70.459551	25.287156	-9.446026	82.808897	56.676031
0.175000	-0.883807	-4.225655	94.239928	0.156582	-0.266459	0.153540	103.378699	18.882039	18.034385	-1.790304	39.164801	-16.865620	-38.144043	60.535922	13.634758	30.108195	44.239829	50.596923	7.582264	40.117697	58.703143	31.096908	-6.853661	73.637592	70.587602	25.179415	-9.442019	82.760178	56.763456
0.185000	-0.883807	-4.225655	94.239928	0.156559	-0.266517	0.153547	103.356975	18.838160	18.018160	-1.810013	39.148990	-16.868469	-38.164564	60.499425	13.627124	30.068811	44.372193	50.562321	7.580829	40.070750	58.841685	31.013643	-6.847185	73.583318	70.717319	25.058403	-9.440187	82.671184	56.889279
0.195000	-0.883807	-4.225655	94.239928	0.156533	-0.266556	0.153598	103.354338	18.801034	18.011071	-1.831711	39.139624	-16.875416	-38.177085	60.456328	13.619543	30.041278	44.502420	50.521966	7.578133	40.051480	58.947586	30.951459	-6.843268	73.524509	70.824793	24.938364	-9.438040	82.559147	57.028876
0.205000	-0.883807	-4.225655	94.239928	0.156515	-0.266571	0.153684	103.366013	18.770868	18.010087	-1.849485	39.146486	-16.881889	-38.191709	60.423581	13.612218	30.027543	44.600571	50.491375	7.573493	40.052609	59.008392	30.921535	-6.841484	73.469941	70.897388	24.837798	-9.433847	82.444312	57.158450
0.215000	-0.883807	-4.225655	94.239928	0.156512	-0.266564	0.153776	103.379119	18.746276	18.012457	-1.862076	39.173986	-16.879860	-38.211886	60.413257	13.605754	30.022917	44.648271	50.482301	7.567186	40.057367	59.029021	30.924738	-6.840468	73.424215	70.934303	24.773007	-9.426967	82.345043	57.258073
0.225000	-0.883807	-4.225655	94.239928	0.156524	-0.266545	0.153841	103.380649	18.726273	18.014804	-1.872298	39.219410	-16.861749	-38.233954	60.429316	13.600634	30.021830	44.636428	50.498050	7.560399	40.051540	59.020645	30.952892	-6.838843	73.389114	70.942431	24.751710	-9.417788	82.275435	57.313145
0.235000	-0.883807	-4.225655	94.239928	0.156544	-0.266523	0.153857	103.363720	18.710953	18.013414	-1.884388	39.274553	-16.824754	-38.250015	60.467672	13.596751	30.022301	44.563027	50.533023	7.554655	40.031485	58.991236	30.992540	-6.835938	73.366670	70.930483	24.769583	-9.407253	82.243988	57.316746
0.245000	-0.883807	-4.225655	94.239928	0.156562	-0.266508	0.153824	103.329563	18.701057	18.005428	-1.900868	39.329593	-16.773071	-38.252376	60.518491	13.593294	30.026796	44.433347	50.576117	7.551031	40.003981	58.943055	31.029420	-6.831958	73.361044	70.904762	24.811667	-9.396308	82.252232	57.272173
0.255000	-0.883807	-4.225655	94.239928	0.156568	-0.266502	0.153753	103.285459	18.697106	17.989957	-1.920760	39.376973	-16.716734	-38.237262	60.569596	13.589111	30.039543	44.261697	50.615915	7.549613	39.979524	58.876659	31.052488	-6.827634	73.377127	70.868639	24.858146	-9.385727	82.294101	57.192993
0.265000	-0.883807	-4.225655	94.239928	0.156560	-0.266504	0.153665	103.240653	18.698738	17.968265	-1.940168	39.413511	-16.667621	-38.205821	60.610265	13.583365	30.062178	44.071691	50.645364	7.549511	39.963914	58.796988	31.056738	-6.823688	73.416470	70.825212	24.891510	-9.376279	82.357423	57.099156
0.275000	-0.883807	-4.225655	94.239928	0.156536	-0.266511	0.153579	103.202568	18.704604	17.942853	-1.954829	39.440299	-16.634481	-38.162367	60.634588	13.576059	30.090501	43.892377	50.664256	7.549383	39.953214	58.716177	31.044014	-6.820435	73.473688	70.780463	24.901889	-9.368786	82.427387	57.010510
0.285000	-0.883807	-4.225655	94.239928	0.156500	-0.266520	0.153508	103.174821	18.712820	17.915999	-1.962875	39.461026	-16.619302	-38.111931	60.643174	13.568086	30.114787	43.750114	50.678488	7.548158	39.935242	58.650306	31.021458	-6.817764	73.536418	70.743819	24.888855	-9.363737	82.490319	56.940932
0.295000	-0.883807	-4.225655	94.239928	0.156457	-0.266527	0.153454	103.157336	18.721727	17.888641	-1.965919	39.479769	-16.616956	-38.059084	60.642218	13.560764	30.123954	43.659445	50.696315	7.545597	39.896966	58.611892	30.998360	-6.815426	73.589307	70.724931	24.859869	-9.360750	82.536144	56.895844
0.305000	-0.883807	-4.225655	94.239928	0.156409	-0.266532	0.153415	103.147821	18.730586	17.860284	-1.967774	39.499153	-16.618449	-38.007872	60.640160	13.555166	30.111269	43.617905	50.723490	7.542380	39.833059	58.603339	30.983121	-6.813378	73.619752	70.728572	24.826546	-9.358467	82.559286	56.873625
0.315000	-0.883807	-4.225655	94.239928	0.156361	-0.266536	0.153387	103.143461	18.739724	17.829953	-1.971967	39.519444	-16.615873	-37.961370	60.643665	13.551585	30.077829	43.608160	50.760249	7.539695	39.749304	58.616213	30.981462	-6.811872	73.622255	70.751542	24.800192	-9.355145	82.558721	56.868986
0.325000	-0.883807	-4.225655	94.239928	0.156314	-0.266538	0.153365	103.141948	18.749925	17.797569	-1.980071	39.538703	-16.605940	-37.920268	60.655193	13.549361	30.031326	43.606635	50.802054	7.538541	39.658003	58.637052	30.995620	-6.811180	73.599694	70.784043	24.787977	-9.349548	82.537780	56.875872
0.335000	-0.883807	-4.225655	94.239928	0.156270	-0.266539	0.153344	103.141624	18.761400	17.764785	-1.991799	39.553910	-16.590275	-37.881588	60.673251	13.547073	29.981270	43.593070	50.843214	7.539155	39.569172	58.655180	31.023799	-6.811200	73.561722	70.814117	24.791018	-9.341535	82.503489	56.888889
0.345000	-0.883807	-4.225655	94.239928	0.156230	-0.266537	0.153323	103.141129	18.773137	17.734644	-2.006109	39.562641	-16.573200	-37.839015	60.694490	13.543025	29.934899	43.554604	50.880307	7.540907	39.485157	58.666254	31.060037	-6.811317	73.521592	70.831399	24.805113	-9.332106	82.464951	56.903964
0.355000	-0.883807	-4.225655	94.239928	0.156196	-0.266530	0.153302	103.139036	18.783148	17.710283	-2.022025	39.564470	-16.559059	-37.785429	60.715722	13.535855	29.896880	43.483484	50.912914	7.542707	39.402975	58.669701	31.095486	-6.810693	73.492443	70.828498	24.823616	-9.322968	82.430712	56.919061
